<svg xmlns="http://www.w3.org/2000/svg" viewBox="0 0 271 259.71"><title>Asset 1</title><g id="Layer_2" data-name="Layer 2"><g id="Layer_1-2" data-name="Layer 1"><polygon points="135.87 0 148.13 20.54 160.4 41.06 135.87 41.06 111.34 41.06 123.6 20.54 135.87 0" style="fill:#464b99"/><polygon points="271 135.41 250.46 147.68 229.94 159.94 229.94 135.41 229.94 110.89 250.46 123.15 271 135.41" style="fill:#464b99"/><polygon points="0 137.33 20.54 149.59 41.06 161.85 41.06 137.33 41.06 112.8 20.54 125.07 0 137.33" style="fill:#464b99"/><path d="M232.61,133.81a97.82,97.82,0,1,0-117.88,95.6c7.73,12.41,19.95,31.1,22.89,30.27s14.25-19.1,21.53-31.25a97.74,97.74,0,0,0,73.46-94.61" style="fill:#464b99"/><path d="M219.71,134A84.93,84.93,0,1,1,134.79,49,84.94,84.94,0,0,1,219.71,134" style="fill:#97d0c8;fill-rule:evenodd"/><path d="M195,134.36a60.25,60.25,0,1,1-60.24-60.25A60.25,60.25,0,0,1,195,134.36" style="fill:#43b9bc;fill-rule:evenodd"/><path d="M103.59,212.94s73.18-15.87,83.49-49.59c0,0-120-47.31-107.88-5.71C82.28,168.22,58,170.18,58,170.18S67.86,200.63,103.59,212.94Z" style="fill:#43b9bc;fill-rule:evenodd"/><path d="M182.48,63.68S113.56,61.38,88,96.43c0,0,109.8,71.8,106.29,27.68-.89-11.22,24-8.06,24-8.06S215.9,83.5,182.48,63.68Z" style="fill:#43b9bc;fill-rule:evenodd"/><polygon points="112.49 174.37 89.45 134.46 112.49 94.56 158.56 94.56 181.59 134.46 158.56 174.37 112.49 174.37" style="fill:#2480b7;fill-rule:evenodd"/><path d="M153.43,134A17.91,17.91,0,1,1,135.52,116,17.91,17.91,0,0,1,153.43,134Z" style="fill:#4a509c;fill-rule:evenodd"/><path d="M112.49,174.37s11.65,30.77,59.15,36.11c0,0,16.77-7.84,22.57-15.86,0,0-40.86-10.72-27.42-34.52" style="fill:#2480b7;fill-rule:evenodd"/><path d="M159.87,97.39S150.31,74.11,112.49,52c0,0-14.5,3.2-21,8.91,0,0,39.33,1.27,21,33.68" style="fill:#2480b7;fill-rule:evenodd"/></g></g></svg>